# xmcd
#
# Track frame offsets:
# 150
# 13843
# 29885
# 43513
# 57471
# 71492
# 81167
# 98183
# 115004
# 127298
# 141900
# 160140
#
# Disc length: 2428 seconds
#
#
# Revision: 0
# Processed by: cddbd v1.5.2PL0 Copyright (c) Steve Scherf et al.
# Submitted via: FreeRIP 2.91 
#
DISCID=ae097a0c
DTITLE=The Froggy Mountain Boys - Live at Manouch!
DYEAR=2011
DGENRE=Blues
TTITLE0=Boodelem
TTITLE1=She`s Killing me
TTITLE2=Riverboat Shuffle
TTITLE3=What the matter with the mill
TTITLE4=Prosperity
TTITLE5=Place de Bruckere
TTITLE6=Blues in the bottle
TTITLE7=Lazy bones
TTITLE8=Oozlin
TTITLE9=One sided love affair
TTITLE10=Lonesome road
TTITLE11=Hold your ear
EXTD=Berlin
EXTT0=
EXTT1=
EXTT2=
EXTT3=
EXTT4=
EXTT5=
EXTT6=
EXTT7=
EXTT8=
EXTT9=
EXTT10=
EXTT11=
PLAYORDER=
